<svg height="464pt" viewBox="-5 0 464 464.75367" width="464pt" xmlns="http://www.w3.org/2000/svg"><path d="m148.304688 68.023438c-30.414063-55.332032-110.515626-69.710938-121.210938-63.828126-3.410156 1.875-10.457031 14.644532-15.992188 32.773438l-6.285156 28.71875c-3.234375 24.066406-1.757812 51.464844 11.207032 75.050781 30.414062 55.332031 72.386718 61.535157 108.914062 41.457031 36.53125-20.082031 53.785156-58.84375 23.367188-114.171874zm0 0" fill="#87796f"/><path d="m150.933594 66.574219c-30.441406-55.375-112.238282-72.183594-125.289063-65.007813-4.78125 2.628906-12.105469 17.152344-17.414062 34.527344-.484375 1.582031.40625 3.261719 1.992187 3.746094 1.585938.480468 3.261719-.410156 3.746094-1.996094 6-19.636719 12.757812-30.003906 14.570312-31.019531 9.542969-5.25 87.765626 9.210937 117.140626 62.640625 26.265624 47.78125 18.179687 87.910156-22.183594 110.097656-18.523438 10.179688-37.335938 12.714844-54.402344 7.320312-19.496094-6.15625-36.464844-22.167968-50.441406-47.589843-13.746094-25.007813-13.492188-53.617188-10.859375-73.207031.222656-1.640626-.929688-3.152344-2.574219-3.375-1.648438-.207032-3.152344.933593-3.371094 2.574218-2.753906 20.488282-2.984375 50.457032 11.546875 76.898438 14.742188 26.816406 32.875 43.78125 53.890625 50.421875 6.445313 2.035156 13.105469 3.046875 19.882813 3.046875 12.851562 0 26.128906-3.636719 39.214843-10.835938 19.992188-10.988281 33.214844-26.796875 38.242188-45.726562 5.660156-21.296875 1.054688-45.695313-13.691406-72.515625zm0 0" fill="#3a312a"/><path d="m116.703125 79.027344c-17.121094-31.144532-62.203125-39.234375-68.222656-35.925782-4.925781 2.707032-23.347657 45.710938-6.230469 76.855469 17.121094 31.140625 40.742188 34.632813 61.300781 23.332031 20.5625-11.304687 30.269531-33.121093 13.152344-64.261718zm0 0" fill="#f16c7a"/><path d="m119.332031 77.578125c-17.867187-32.503906-64.484375-41.398437-72.296875-37.105469-6.191406 3.402344-25.601562 47.839844-7.414062 80.925782 11.09375 20.179687 26.261718 30.765624 42.851562 30.765624 7.308594 0 14.894532-2.054687 22.523438-6.25 24.957031-13.71875 30.316406-39.261718 14.335937-68.335937zm-17.226562 63.078125c-21.984375 12.082031-42.84375 4.015625-57.226563-22.148438-16.15625-29.386718 1.050782-69.671874 5.027344-72.769531.460938-.214843 1.363281-.332031 2.628906-.332031 10.613282 0 46.78125 8.222656 61.539063 35.066406 14.382812 26.160156 10.019531 48.097656-11.96875 60.183594zm0 0" fill="#3a312a"/><path d="m429.035156 4.195312c-10.703125-5.882812-90.800781 8.496094-121.214844 63.828126-30.417968 55.328124-13.164062 94.089843 23.367188 114.171874 36.527344 20.078126 78.5 13.875 108.914062-41.457031 30.417969-55.332031-2.3125-131.730469-11.066406-136.542969zm0 0" fill="#87796f"/><path d="m430.480469 1.566406c-13.0625-7.179687-94.851563 9.632813-125.289063 65.007813-14.742187 26.820312-19.351562 51.21875-13.695312 72.519531 5.03125 18.925781 18.25 34.738281 38.242187 45.726562 13.089844 7.199219 26.367188 10.835938 39.214844 10.835938 6.777344 0 13.4375-1.011719 19.882813-3.046875 21.019531-6.640625 39.148437-23.605469 53.890624-50.421875 30.960938-56.316406-1.910156-134.941406-12.246093-140.621094zm6.992187 137.726563c-13.972656 25.421875-30.945312 41.433593-50.441406 47.59375-17.066406 5.394531-35.882812 2.859375-54.398438-7.320313-18.519531-10.179687-30.738281-24.707031-35.335937-42.007812-5.246094-19.761719-.824219-42.667969 13.152344-68.089844 29.371093-53.433594 107.59375-67.894531 117.136719-62.644531 7.105468 3.972656 39.480468 78.632812 9.886718 132.46875zm0 0" fill="#3a312a"/><path d="m407.644531 43.101562c-6.019531-3.308593-51.105469 4.78125-68.222656 35.925782-17.121094 31.140625-7.40625 52.957031 13.152344 64.257812 20.558593 11.300782 44.179687 7.808594 61.300781-23.332031s-1.300781-74.144531-6.230469-76.851563zm0 0" fill="#f16c7a"/><path d="m409.09375 40.472656c-4.554688-2.5-19.125-.316406-32.484375 4.875-12.816406 4.980469-30.128906 14.613282-39.8125 32.234375-8.46875 15.398438-11.101563 29.457031-7.828125 41.785157 2.925781 11.007812 10.585938 20.1875 22.160156 26.546874 7.566406 4.160157 15.25 6.261719 22.699219 6.261719 3.949219 0 7.832031-.59375 11.589844-1.777343 12.164062-3.84375 22.625-13.597657 31.089843-29 18.1875-33.085938-1.226562-77.523438-7.414062-80.925782zm2.152344 78.035156c-7.695313 14.003907-16.996094 22.808594-27.632813 26.167969-9.257812 2.925781-19.492187 1.535157-29.59375-4.015625-10.101562-5.554687-16.757812-13.449218-19.25-22.832031-2.867187-10.785156-.414062-23.351563 7.285157-37.355469 14.800781-26.925781 51.15625-35.117187 61.550781-35.117187 1.203125 0 2.058593.109375 2.496093.3125 4.09375 3.167969 21.300782 43.453125 5.144532 72.839843zm0 0" fill="#3a312a"/><path d="m416.621094 283.046875c-.347656-.382813-.699219-.761719-1.046875-1.175781.382812-5.433594.570312-10.867188.570312-16.425782 0-22.4375-3.273437-44.042968-9.40625-64.285156-18.875-62.824218-64.726562-112.359375-122.65625-132.316406-18.046875-6.226562-37.238281-9.597656-57.164062-9.597656-19.222657 0-37.78125 3.117187-55.257813 8.960937-58.785156 19.511719-105.464844 69.429688-124.5625 132.984375-6.101562 20.242188-9.40625 41.816406-9.40625 64.253906 0 6.035157.253906 11.976563.730469 17.855469.03125.285157.03125.574219.0625.859375-15.886719 18.015625-24.910156 38.542969-24.910156 60.375 0 6.863282.890625 13.375 2.605469 19.539063 15.394531 55.5625 97.441406 83.976562 198.371093 86.292969l25.691407.03125c101.542968-2.089844 184.238281-30.515626 199.707031-86.324219 1.714843-6.164063 2.605469-12.675781 2.605469-19.539063-.003907-22.308594-9.410157-43.21875-25.933594-61.488281zm0 0" fill="#fce8cb"/><path d="m418.804688 280.988281c-.050782-.054687-.101563-.113281-.152344-.167969.332031-5.125.492187-10.171874.492187-15.375 0-22.351562-3.207031-44.273437-9.53125-65.148437-19.179687-63.828125-65.738281-114.027344-124.550781-134.289063-18.769531-6.472656-38.332031-9.757812-58.144531-9.757812-19.214844 0-38.128907 3.066406-56.203125 9.113281-59.769532 19.839844-107.058594 70.292969-126.492188 134.964844-6.324218 20.988281-9.53125 42.894531-9.53125 65.117187 0 5.789063.234375 11.707032.707032 17.6875-16.246094 18.804688-24.828126 40.011719-24.828126 61.402344 0 7.027344.914063 13.875 2.714844 20.34375 14.648438 52.855469 89.859375 85.9375 201.257813 88.492188l25.691406.03125h.066406c112.101563-2.308594 187.8125-35.402344 202.535157-88.519532 1.800781-6.476562 2.714843-13.320312 2.714843-20.34375 0-22.226562-9.234375-44.183593-26.746093-63.550781zm18.25 82.289063c-13.972657 50.417968-87.5625 81.863281-196.84375 84.121094l-25.59375-.03125c-108.542969-2.488282-181.644532-33.921876-195.546876-84.09375-1.65625-5.953126-2.496093-12.253907-2.496093-18.738282 0-20.566406 8.128906-40.210937 24.160156-58.390625.558594-.632812.824219-1.472656.734375-2.3125l-.019531-.261719c-.007813-.199218-.023438-.402343-.035157-.511718-.476562-5.898438-.71875-11.824219-.71875-17.613282 0-21.636718 3.121094-42.960937 9.277344-63.390624 18.875-62.804688 64.71875-111.777344 122.640625-131 17.464844-5.84375 35.738281-8.808594 54.304688-8.808594 19.148437 0 38.050781 3.175781 56.191406 9.4375 56.992187 19.628906 102.132813 68.355468 120.761719 130.347656 6.15625 20.316406 9.277344 41.652344 9.277344 63.414062 0 5.488282-.1875 10.792969-.566407 16.214844-.050781.78125.199219 1.550782.707031 2.148438.363282.433594.726563.832031 1.113282 1.25 16.691406 18.460937 25.152344 38.46875 25.152344 59.476562-.003907 6.480469-.84375 12.78125-2.5 18.742188zm0 0" fill="#3a312a"/><path d="m171.660156 68.207031c-58.785156 19.511719-105.464844 69.429688-124.5625 132.984375-6.101562 20.242188-9.40625 41.816406-9.40625 64.253906 0 6.035157.253906 11.976563.730469 17.855469.03125.285157.03125.574219.0625.859375-15.886719 18.015625-24.910156 38.542969-24.910156 60.375 0 6.863282.890625 13.375 2.605469 19.539063 13.695312 5.910156 28.3125 9.089843 43.46875 9.089843 78.328124 0 141.789062-84.652343 141.789062-189.070312-.003906-43.65625-11.09375-83.886719-29.777344-115.886719zm0 0" fill="#87796f"/><path d="m174.25 66.695312c-.714844-1.222656-2.191406-1.777343-3.535156-1.332031-59.769532 19.835938-107.058594 70.289063-126.492188 134.960938-6.324218 20.988281-9.53125 42.898437-9.53125 65.121093 0 5.785157.234375 11.707032.707032 17.6875-16.246094 18.800782-24.828126 40.007813-24.828126 61.402344 0 7.027344.914063 13.871094 2.714844 20.347656.246094.871094.867188 1.589844 1.703125 1.949219 14.347657 6.191407 29.375 9.332031 44.65625 9.332031 79.835938 0 144.789063-86.160156 144.789063-192.066406 0-42.988281-10.4375-83.585937-30.183594-117.402344zm-114.601562 303.46875c-13.988282 0-27.753907-2.785156-40.945313-8.277343-1.414063-5.542969-2.128906-11.371094-2.128906-17.355469 0-20.5625 8.128906-40.210938 24.164062-58.390625.558594-.632813.824219-1.472656.730469-2.3125l-.015625-.257813c-.011719-.203124-.023437-.40625-.039063-.511718-.476562-5.902344-.71875-11.828125-.71875-17.617188 0-21.632812 3.121094-42.960937 9.277344-63.386718 18.625-61.96875 63.5-110.46875 120.320313-130.214844 18.417969 32.472656 28.144531 71.226562 28.144531 112.253906-.003906 102.601562-62.261719 186.070312-138.789062 186.070312zm0 0" fill="#3a312a"/><path d="m416.621094 283.046875c-.347656-.382813-.699219-.761719-1.046875-1.175781.382812-5.433594.570312-10.867188.570312-16.425782 0-22.4375-3.273437-44.042968-9.40625-64.285156-18.875-62.824218-64.726562-112.359375-122.65625-132.316406-10.769531 18.640625-18.960937 40.054688-23.933593 63.277344l-4.132813 26.246094c-.859375 8.414062-1.324219 17-1.324219 25.726562 0 104.417969 63.457032 189.070312 141.785156 189.070312 15.160157 0 29.773438-3.179687 43.472657-9.089843 1.714843-6.164063 2.605469-12.675781 2.605469-19.539063-.003907-22.308594-9.410157-43.21875-25.933594-61.488281zm0 0" fill="#87796f"/><path d="m418.804688 280.988281c-.050782-.054687-.101563-.113281-.152344-.167969.332031-5.125.492187-10.171874.492187-15.375 0-22.351562-3.207031-44.273437-9.53125-65.148437-19.179687-63.828125-65.738281-114.027344-124.554687-134.289063-1.347656-.464843-2.851563.09375-3.574219 1.335938-11.105469 19.226562-19.273437 40.808594-24.269531 64.148438-.347656 1.621093.683594 3.214843 2.304687 3.5625 1.621094.34375 3.214844-.683594 3.558594-2.304688 4.683594-21.851562 12.203125-42.105469 22.371094-60.242188 55.882812 20.148438 100.046875 68.382813 118.417969 129.523438 6.15625 20.316406 9.277343 41.652344 9.277343 63.414062 0 5.488282-.1875 10.792969-.566406 16.214844-.050781.78125.199219 1.550782.707031 2.148438.363282.433594.726563.832031 1.113282 1.25 16.691406 18.460937 25.152343 38.46875 25.152343 59.476562 0 5.980469-.714843 11.808594-2.125 17.351563-13.191406 5.496093-26.960937 8.277343-40.949219 8.277343-76.527343 0-138.785156-83.46875-138.785156-186.066406 0-8.367187.4375-16.921875 1.304688-25.425781.167968-1.644531-1.03125-3.121094-2.679688-3.289063-1.644531-.164062-3.121094 1.03125-3.289062 2.679688-.886719 8.707031-1.339844 17.464844-1.339844 26.035156 0 105.90625 64.953125 192.066406 144.785156 192.066406 15.285156 0 30.308594-3.136718 44.660156-9.332031.832032-.359375 1.460938-1.078125 1.703126-1.953125 1.800781-6.476562 2.714843-13.320312 2.714843-20.34375 0-22.222656-9.234375-44.179687-26.746093-63.546875zm0 0" fill="#3a312a"/><path d="m228.144531 269.328125c-16.796875-.074219-30.453125 8.039063-30.496093 18.117187-.042969 10.082032 13.5 26.421876 30.300781 26.496094 16.796875.070313 30.488281-16.148437 30.53125-26.230468.042969-10.078126-13.539063-18.308594-30.335938-18.382813zm0 0" fill="#3a312a"/><path d="m144.128906 283.535156c0-13.636718-17.6875-24.6875-39.5-24.6875-21.816406 0-39.5 11.050782-39.5 24.6875 0 13.632813 17.683594 24.683594 39.5 24.683594 21.8125 0 39.5-11.050781 39.5-24.683594zm0 0" fill="#f5978a"/><path d="m390.996094 283.535156c0-13.636718-17.683594-24.6875-39.5-24.6875-21.8125 0-39.496094 11.050782-39.496094 24.6875 0 13.632813 17.683594 24.683594 39.496094 24.683594 21.816406 0 39.5-11.050781 39.5-24.683594zm0 0" fill="#f5978a"/><path d="m163.878906 217.246094c-9.546875 0-17.28125 7.734375-17.28125 17.28125 0 9.542968 7.734375 17.277344 17.28125 17.277344 9.542969 0 17.277344-7.738282 17.277344-17.277344 0-9.546875-7.734375-17.28125-17.277344-17.28125zm0 0" fill="#3a312a"/><path d="m309.285156 231.757812c-1.523437-9.421874-10.398437-15.820312-19.816406-14.296874-9.421875 1.527343-15.824219 10.398437-14.296875 19.820312 1.523437 9.417969 10.398437 15.820312 19.816406 14.296875 9.421875-1.527344 15.820313-10.398437 14.296875-19.820313zm0 0" fill="#3a312a"/><path d="m228.0625 329.753906c-28.160156 0-51 22.839844-51 51 0 1.5625.058594 3.082032.21875 4.601563 2.320312 26 24.179688 46.398437 50.78125 46.398437 26.597656 0 48.460938-20.398437 50.78125-46.398437.15625-1.519531.21875-3.039063.21875-4.601563 0-28.160156-22.839844-51-51-51zm0 0" fill="#87796f"/><path d="m228.0625 326.753906c-29.773438 0-54 24.226563-54 54 0 1.800782.078125 3.40625.234375 4.871094 2.457031 27.546875 26.078125 49.128906 53.765625 49.128906 27.691406 0 51.3125-21.582031 53.765625-49.082031.15625-1.503906.234375-3.109375.234375-4.917969 0-29.773437-24.226562-54-54-54zm47.792969 58.335938c-2.1875 24.484375-23.175781 43.664062-47.792969 43.664062-24.613281 0-45.605469-19.179687-47.792969-43.710937-.136719-1.300781-.207031-2.703125-.207031-4.289063 0-26.464844 21.535156-48 48-48 26.46875 0 48 21.535156 48 48 0 1.59375-.066406 2.996094-.207031 4.335938zm0 0" fill="#3a312a"/><path d="m229.0625 306.753906c-1.65625 0-3 1.34375-3 3v20c0 1.660156 1.34375 3 3 3 1.660156 0 3-1.339844 3-3v-20c0-1.65625-1.34375-3-3-3zm0 0" fill="#3a312a"/><path d="m262.183594 378.117188c-10.101563-1.421876-19.542969 1.457031-26.703125 7.078124-4.359375 3.421876-10.480469 3.421876-14.839844 0-7.160156-5.621093-16.597656-8.5-26.699219-7.078124-6.21875.878906-11.941406 3.457031-16.660156 7.238281 2.320312 26 15.78125 76.398437 50.78125 76.398437s48.460938-50.398437 50.78125-76.398437c-4.722656-3.78125-10.441406-6.359375-16.660156-7.238281zm0 0" fill="#f16c7a"/><path d="m280.71875 383.015625c-5.265625-4.21875-11.53125-6.9375-18.117188-7.871094-10.488281-1.476562-20.777343 1.257813-28.972656 7.6875-3.273437 2.574219-7.855468 2.574219-11.132812.003907-8.199219-6.433594-18.484375-9.160157-28.972656-7.691407-6.585938.929688-12.851563 3.652344-18.117188 7.871094-.785156.625-1.199219 1.605469-1.113281 2.605469 2.441406 27.371094 16.824219 79.132812 53.769531 79.132812 36.941406 0 51.324219-51.761718 53.765625-79.132812.09375-1-.324219-1.980469-1.109375-2.605469zm-17.6875 48.933594c-9.011719 17.785156-20.777344 26.804687-34.96875 26.804687s-25.957031-9.015625-34.96875-26.804687c-9-17.761719-11.851562-37.496094-12.660156-45.21875 4.140625-2.996094 8.929687-4.9375 13.929687-5.644531 8.847657-1.242188 17.527344 1.054687 24.429688 6.472656 5.457031 4.28125 13.085937 4.28125 18.539062 0 6.902344-5.417969 15.578125-7.71875 24.433594-6.472656 5 .710937 9.785156 2.652343 13.929687 5.644531-.8125 7.722656-3.664062 27.457031-12.664062 45.21875zm0 0" fill="#3a312a"/><path d="m279.703125 70.574219c-16.320313-5.257813-33.242187-8.058594-50.339844-8.296875 8.4375 1.597656 16.699219 3.777344 24.71875 6.558594 7.460938 2.558593 14.699219 5.621093 21.71875 9.140624 1.261719-2.5 2.5625-4.960937 3.902344-7.402343zm125.820313 305.203125c-18.320313 38.097656-71.0625 61.457031-139.023438 70.476562 38.703125-2.679687 72.960938-9.457031 100.542969-20 35.519531-13.558594 58.859375-33.199218 68-57.019531-9.601563 3.542969-19.5 5.742187-29.519531 6.542969zm0 0" fill="#decaad"/><path d="m414.402344 285.054688c-.378906-.417969-.761719-.820313-1.121094-1.238282-.5-.601562-.757812-1.378906-.699219-2.160156.378907-5.421875.558594-10.71875.558594-16.21875 0-21.761719-3.117187-43.082031-9.277344-63.402344-18.363281-61.140625-62.519531-109.378906-118.421875-129.519531-1.519531 2.699219-2.960937 5.441406-4.359375 8.21875 45 24.382813 79.820313 67.722656 95.660157 120.421875 6.140624 20.238281 9.398437 41.859375 9.398437 64.28125 0 2.058594-.019531 4.097656-.078125 6.136719 3.140625 3.542969 4.9375 7.621093 4.9375 11.960937 0 1.359375-.179688 2.699219-.519531 4 14.121093 17.179688 22.0625 36.5 22.0625 57 0 6.859375-.882813 13.378906-2.601563 19.539063-.5 1.839843-1.078125 3.640625-1.738281 5.421875 9.9375-1.121094 19.71875-3.660156 29.21875-7.601563 1.421875-5.539062 2.140625-11.378906 2.140625-17.359375 0-21-8.480469-41.019531-25.160156-59.480468zm0 0" fill="#695b51"/></svg>