<svg height="511pt" viewBox="0 -41 511.99956 511" width="511pt" xmlns="http://www.w3.org/2000/svg">
    <path d="m503.585938 199.71875c0-42.710938-110.855469-77.328125-247.585938-77.328125s-247.585938 34.617187-247.585938 77.328125c0 0-2.058593 58.105469 0 77.328125 1.714844 15.992187 7.886719 45.445313 14.300782 73.59375 9.425781 41.410156 46.335937 70.78125 88.898437 70.78125h288.773438c42.5625 0 79.472656-29.371094 88.898437-70.78125 6.414063-28.148437 12.582032-57.601563 14.300782-73.59375 2.058593-19.222656 0-77.328125 0-77.328125zm0 0"
          fill="#40c6c2"/>
    <path d="m66.335938 348.515625c-5.832032-28.996094-11.445313-59.332031-13.003907-75.804687-1.871093-19.800782 0-79.652344 0-79.652344 0-23.921875 29.8125-45.382813 77.011719-59.984375-72.972656 13.453125-121.929688 38.261719-121.929688 66.648437 0 0-2.058593 58.101563 0 77.328125 1.714844 15.988281 7.886719 45.441407 14.300782 73.59375 9.425781 41.40625 46.335937 70.777344 88.898437 70.777344h35.574219c-38.710938 0-72.277344-30.253906-80.851562-72.90625zm0 0"
          fill="#1f9b92"/>
    <path d="m357.132812 275.5c-12.816406-1.578125-25.1875-1.140625-36.425781.96875-8.761719 1.644531-17.773437 1.128906-26.242187-1.652344-11.5-3.773437-24.585938-5.910156-38.464844-5.910156-13.882812 0-26.96875 2.136719-38.464844 5.910156-8.46875 2.78125-17.480468 3.296875-26.242187 1.652344-11.242188-2.109375-23.609375-2.546875-36.429688-.96875-45.496093 5.59375-79.390625 34.421875-75.703125 64.390625 3.683594 29.964844 43.210938 44.125 89.050782 44.125h175.578124c45.839844 0 85.367188-14.160156 89.050782-44.125 3.6875-29.96875-30.207032-58.796875-75.707032-64.390625zm0 0"
          fill="#bfc1c1"/>
    <path d="m376.96875 162.292969c-1.441406-6.257813-10.378906-6.472657-12.113281-.289063-1.800781 6.421875-4.539063 12.683594-7.832031 18.792969-7.4375 13.78125-19.558594 24.980469-33.886719 31.304687l16.761719 38.613282c18.503906-11.277344 32.1875-30.1875 37.121093-51.285156 2.84375-12.164063 2.753907-24.96875-.050781-37.136719zm0 0"
          fill="#ffaf5c"/>
    <g fill="#d67f3e">
        <path d="m367.125 204.085938c-10.976562-11.039063-30.089844-13.972657-42.582031-4.675782l-25.191407 106h25.460938c9.75-5.75 19.261719-11.886718 27.75-19.351562 11.691406-10.28125 21.441406-23.386719 25.105469-38.523438 3.660156-15.132812.4375-32.40625-10.542969-43.449218zm0 0"/>
        <path d="m144.871094 204.085938c10.980468-11.039063 30.09375-13.972657 42.585937-4.675782l25.191407 106h-25.460938c-9.75-5.75-19.265625-11.886718-27.75-19.351562-11.691406-10.28125-21.445312-23.386719-25.105469-38.523438-3.660156-15.132812-.4375-32.40625 10.539063-43.449218zm0 0"/>
        <path d="m213.308594 132.765625h85.382812v172.644531h-85.382812zm0 0"/>
    </g>
    <path d="m229.605469 305.410156h52.789062v-63.171875c0-14.574219-11.816406-26.390625-26.394531-26.390625s-26.394531 11.8125-26.394531 26.390625zm0 0"
          fill="#efeec5"/>
    <path d="m312.023438 145.078125-29.628907 14.464844v145.867187h25.828125l30.496094-91.710937c8.75-26.320313-2.460938-55.136719-26.695312-68.621094zm0 0"
          fill="#ffaf5c"/>
    <path d="m199.976562 145.078125 29.628907 14.464844v145.867187h-25.828125l-30.496094-91.710937c-8.75-26.320313 2.460938-55.136719 26.695312-68.621094zm0 0"
          fill="#ffaf5c"/>
    <path d="m202.019531 275.359375c-15.125 0-27.644531 11.179687-29.742187 25.722656-.328125 2.292969 1.503906 4.328125 3.816406 4.328125h51.851562c2.3125 0 4.144532-2.039062 3.8125-4.328125-2.09375-14.542969-14.609374-25.722656-29.738281-25.722656zm0 0"
          fill="#ededed"/>
    <path d="m309.980469 275.359375c-15.128907 0-27.644531 11.179687-29.742188 25.722656-.328125 2.292969 1.503907 4.328125 3.816407 4.328125h51.851562c2.3125 0 4.144531-2.039062 3.8125-4.328125-2.097656-14.542969-14.613281-25.722656-29.738281-25.722656zm0 0"
          fill="#ededed"/>
    <path d="m291.257812 21.417969 18.863282-10.890625c3.027344-1.75 6.464844-2.667969 9.960937-2.667969h11.066407c23.179687 0 42.402343 17.9375 44 41.0625l1.496093 21.636719c.765625 11.113281-7.410156 20.832031-18.488281 21.980468-3.804688.398438-7.648438-.273437-11.09375-1.933593l-40.921875-19.695313zm0 0"
          fill="#d67f3e"/>
    <path d="m220.738281 21.417969-18.859375-10.890625c-3.027344-1.75-6.464844-2.667969-9.960937-2.667969h-11.066407c-23.179687 0-42.402343 17.9375-44 41.0625l-1.496093 21.636719c-.769531 11.113281 7.40625 20.832031 18.488281 21.980468 3.804688.398438 7.648438-.273437 11.09375-1.933593l40.921875-19.695313zm0 0"
          fill="#d67f3e"/>
    <path d="m230.875 163.011719-27.074219-12.117188c-17.5625-7.863281-28.867187-25.3125-28.867187-44.554687v-7.648438c0-8.1875 2.019531-16.246094 5.882812-23.464844l23.765625-44.417968c7.5625-14.128906 22.285157-22.949219 38.308594-22.949219h26.214844c16.023437 0 30.75 8.820313 38.308593 22.949219l23.769532 44.417968c3.859375 7.21875 5.882812 15.277344 5.882812 23.464844v7.648438c0 19.242187-11.308594 36.691406-28.871094 44.554687l-27.074218 12.117188c-15.984375 7.152343-34.261719 7.152343-50.246094 0zm0 0"
          fill="#ffaf5c"/>
    <path d="m280.199219 159.71875c0 13.367188-10.832031 24.203125-24.199219 24.203125s-24.203125-10.835937-24.203125-24.203125c0-13.363281 10.835937-24.199219 24.203125-24.199219s24.199219 10.835938 24.199219 24.199219zm0 0"
          fill="#e573b7"/>
    <path d="m284.164062 113.058594c-13.210937 0-43.121093 0-56.328124 0-16.308594 0-29.527344 13.21875-29.527344 29.523437 0 16.308594 13.21875 29.527344 29.527344 29.527344 13.207031 0 24.390624-8.671875 28.164062-20.636719 3.773438 11.964844 14.953125 20.636719 28.164062 20.636719 16.304688 0 29.523438-13.21875 29.523438-29.527344 0-16.304687-13.21875-29.523437-29.523438-29.523437zm0 0"
          fill="#efeec5"/>
    <path d="m284.164062 113.058594h-17.664062c16.308594 0 29.527344 13.21875 29.527344 29.523437 0 13.230469-8.703125 24.429688-20.695313 28.183594 2.789063.871094 5.753907 1.34375 8.832031 1.34375 16.304688 0 29.523438-13.21875 29.523438-29.527344.003906-16.304687-13.21875-29.523437-29.523438-29.523437zm0 0"
          fill="#c9c793"/>
    <path d="m277.457031 107.078125c0 12.890625-9.605469 23.339844-21.457031 23.339844s-21.457031-10.449219-21.457031-23.339844 42.914062-12.890625 42.914062 0zm0 0"
          fill="#5b586d"/>
    <path d="m503.585938 199.71875c0 25.230469-38.703126 47.644531-98.582032 61.761719-11.246094 2.648437-20.035156 11.851562-22.609375 23.621093l-8.703125 39.773438c-3.125 14.28125-15.253906 24.402344-29.242187 24.402344h-176.898438c-13.988281 0-26.117187-10.121094-29.242187-24.402344l-8.703125-39.773438c-2.578125-11.769531-11.363281-20.972656-22.609375-23.621093-59.878906-14.117188-98.582032-36.53125-98.582032-61.761719 0 0-2.058593 58.105469 0 77.328125 1.714844 15.992187 7.886719 45.445313 14.300782 73.59375 9.425781 41.410156 46.335937 70.78125 88.898437 70.78125h288.773438c42.5625 0 79.472656-29.371094 88.898437-70.78125 6.414063-28.148437 12.582032-57.601563 14.300782-73.59375 2.058593-19.222656 0-77.328125 0-77.328125zm0 0"
          fill="#7393d8"/>
    <path d="m503.585938 199.71875c0 15.675781-14.9375 30.261719-40.605469 42.445312.082031 13.710938-.074219 27.3125-.816407 34.882813-1.574218 15.992187-7.230468 45.445313-13.109374 73.59375-8.636719 41.410156-42.464844 70.78125-81.472657 70.78125h32.804688c42.5625 0 79.472656-29.371094 88.898437-70.78125 6.414063-28.148437 12.585938-57.601563 14.300782-73.59375 2.058593-19.222656 0-77.328125 0-77.328125zm0 0"
          fill="#3d6fb7"/>
    <path d="m407.066406 390.980469h-302.132812c-35.644532 0-67.496094-18.816407-83.851563-47.558594.542969 2.410156 1.085938 4.820313 1.632813 7.222656 9.425781 41.40625 46.335937 70.777344 88.898437 70.777344h288.773438c42.5625 0 79.472656-29.371094 88.898437-70.777344.546875-2.402343 1.089844-4.8125 1.632813-7.222656-16.355469 28.742187-48.207031 47.558594-83.851563 47.558594zm0 0"
          fill="#ffaf5c"/>
    <path d="m490.917969 343.421875c-12.324219 21.660156-33.453125 37.683594-58.371094 44.265625-15.476563 20.800781-39.082031 33.734375-64.96875 33.734375h32.808594c39.910156 0 78.703125-25.710937 89.691406-74.273437.132813-.582032.726563-3.222657.839844-3.726563zm0 0"
          fill="#d67f3e"/>
    <path d="m510.894531 199.585938c-.152343-33.96875-53.910156-62.566407-143.871093-76.519532-4.09375-.636718-7.921876 2.167969-8.554688 6.257813-.636719 4.089843 2.164062 7.921875 6.257812 8.554687 90.617188 14.054688 131.179688 41.191406 131.179688 61.851563 0 15.738281-24.363281 38.300781-92.742188 54.421875-10.167968 2.394531-18.800781 9.152344-23.964843 18.253906-1.320313-.390625-2.652344-.761719-3.996094-1.109375 4.570313-7.085937 7.828125-14.492187 9.648437-22.015625 3.210938-13.277344 1.765626-26.824219-3.679687-37.976562 1.21875-3.3125 2.238281-6.714844 3.046875-10.160157 3.054688-13.089843 3.039062-27.097656-.046875-40.503906-1.429687-6.199219-6.683594-10.464844-13.078125-10.613281-6.40625-.171875-11.832031 3.867187-13.542969 9.976562-1.542969 5.484375-3.902343 11.125-7.214843 17.246094-.839844 1.554688-1.746094 3.074219-2.71875 4.554688-.65625-3.074219-1.539063-6.105469-2.644532-9.070313-3.710937-9.945313-9.832031-18.832031-17.6875-25.847656 10.824219-10.488281 17.203125-25.109375 17.203125-40.476563v-7.644531c0-.324219-.003906-.648437-.007812-.972656 3.578125 1.59375 7.511719 2.433593 11.441406 2.433593 1.0625 0 2.035156-.050781 2.921875-.148437 15.167969-1.578125 26.226562-14.726563 25.171875-29.9375l-1.488281-21.632813c-.378906-5.402343-1.582032-10.660156-3.570313-15.625-1.539062-3.84375-5.898437-5.707031-9.742187-4.171874-3.84375 1.539062-5.710938 5.902343-4.171875 9.746093 1.40625 3.515625 2.257812 7.25 2.527343 11.089844l1.492188 21.625c.492188 7.113281-4.675781 13.257813-11.820312 14-.382813.042969-.816407.0625-1.320313.0625-1.96875 0-3.933594-.445313-5.695313-1.296875l-9.058593-4.359375c-.953125-2.679687-2.105469-5.289063-3.453125-7.800781l-23.746094-44.382813c-1.425781-2.667969-3.070312-5.175781-4.902344-7.503906l4.742188-2.738281c1.882812-1.085938 4.027344-1.660156 6.203125-1.660156h11.0625c5.625 0 11.019531 1.242187 16.039062 3.695312 3.714844 1.8125 8.207031.277344 10.023438-3.445312 1.816406-3.714844.277343-8.207032-3.441407-10.023438-7.085937-3.464844-14.695312-5.21875-22.621093-5.21875h-11.0625c-4.804688 0-9.542969 1.269531-13.699219 3.671875l-8.730469 5.039063c-8.261719-5.582032-18.140625-8.710938-28.507812-8.710938h-26.203125c-10.367188 0-20.242188 3.128906-28.507813 8.710938l-8.726562-5.039063c-4.160157-2.402344-8.898438-3.671875-13.699219-3.671875h-11.066406c-26.984375 0-49.582032 21.089844-51.449219 48.015625l-1.488281 21.621094c-1.054688 15.214843 10.003906 28.363281 25.117187 29.933593.941407.105469 1.914063.15625 2.976563.15625 3.929687 0 7.871094-.839843 11.441406-2.433593-.003906.324219-.007812.648437-.007812.972656v7.644531c0 15.367188 6.378906 29.988282 17.203124 40.476563-7.855468 7.015625-13.976562 15.902343-17.6875 25.847656-1.710937 4.582031-2.886718 9.332031-3.523437 14.140625-8.992187 1.378906-17.558594 5.613281-23.851563 11.9375-12.261718 12.324219-17.050781 31.664062-12.503906 50.46875 1.820313 7.527344 5.078125 14.929688 9.648438 22.015625-1.34375.347656-2.675782.71875-3.996094 1.109375-5.164062-9.101562-13.796875-15.859375-23.964844-18.253906-68.378906-16.121094-92.742187-38.683594-92.742187-54.421875 0-11.558594 12.277343-23.925781 34.574219-34.824219 24.023437-11.742188 58.09375-21.191406 98.527343-27.324219 4.09375-.621093 6.90625-4.4375 6.285157-8.53125-.621094-4.09375-4.445313-6.910156-8.53125-6.285156-51.488282 7.808594-144.308594 28.050781-145.945313 79.992187-.042969 1.320313-.089844 2.808594-.089844 2.90625-2.039062 67.882813-1.460937 74.722657 13.03125 139.304688.003907.003906.003907.007812.003907.011719.046874.210937.09375.425781.144531.636719.011719.058593.023437.117187.039062.171874.273438 1.230469.550781 2.457032.828125 3.683594.035156.140625.066406.277344.097656.417969.0625.285156.128907.570313.191407.855469.113281.488281.222656.976562.335937 1.46875 4.929688 21.664062 17.234375 41.230468 34.640625 55.089844 17.398438 13.847656 39.242188 21.476562 61.507813 21.476562h288.582031c22.265625 0 44.105469-7.628906 61.507813-21.476562 22.660156-18.039063 30.921874-38.53125 36.03125-61.230469.023437-.097657.273437-1.210938.25-1.113281 14.300781-63.710938 15.441406-71.277344 12.839843-145.375zm-308.863281 83.230468c8.613281 0 16.300781 4.960938 20.074219 12.300782v2.738281h-41.332031c3.125-8.816407 11.609374-15.039063 21.257812-15.039063zm36.773438 15.039063c-.410157-2.019531-.984376-3.976563-1.707032-5.859375v-50.09375c.167969-10.265625 8.570313-18.5625 18.878906-18.5625 10.304688 0 18.707032 8.296875 18.875 18.5625v50.09375c-.722656 1.882812-1.296874 3.839844-1.707031 5.859375zm51.039062-2.738281c3.773438-7.339844 11.460938-12.300782 20.074219-12.300782 9.644531 0 18.132812 6.222656 21.257812 15.039063h-41.332031zm37.285156-23.066407 18.625-55.984375c1.5-4.519531 2.492188-9.171875 2.972656-13.871094 4.925782 1.203126 9.507813 3.691407 12.992188 7.1875 8.480469 8.527344 11.839844 22.804688 8.5625 36.375-3.707031 15.328126-14.425781 27.292969-22.757812 34.625-1.867188 1.644532-3.839844 3.261719-5.941407 4.878907-3.574219-5.585938-8.582031-10.15625-14.453125-13.210938zm36.390625-87.671875c2.929688-5.410156 5.230469-10.554687 6.980469-15.605468 1.523438 9.292968 1.316406 18.78125-.617188 27.769531-2.96875-2.515625-6.324218-4.617188-9.914062-6.242188 1.273438-1.925781 2.460938-3.898437 3.550781-5.921875zm-79.402343-19.734375c-1.660157 0-3.28125-.183593-4.84375-.53125-.214844-.0625-.433594-.117187-.652344-.15625-7.25-1.847656-13.164063-7.296875-15.496094-14.699219-.984375-3.117187-3.878906-5.242187-7.148438-5.242187-3.273437 0-6.164062 2.125-7.148437 5.242187-2.335937 7.402344-8.25 12.851563-15.503906 14.699219-.214844.042969-.429688.09375-.640625.152344-1.566406.351563-3.1875.535156-4.847656.535156-10.59375 0-19.464844-7.523437-21.550782-17.503906-.027344-.148437-.054687-.292969-.085937-.4375-.089844-.476563-.164063-.957031-.222657-1.441406-.007812-.089844-.019531-.179688-.03125-.269531-.082031-.777344-.125-1.566407-.125-2.363282 0-12.136718 9.875-22.007812 22.015626-22.007812h2.117187c4.703125 10.261718 14.601563 17.347656 26.023437 17.347656 11.425782 0 21.320313-7.085938 26.023438-17.347656h2.121094c12.136718 0 22.011718 9.871094 22.011718 22.007812 0 .796875-.042968 1.585938-.125 2.363282-.011718.089843-.019531.179687-.03125.269531-.058593.484375-.132812.964843-.21875 1.441406-.035156.144531-.0625.289063-.085937.4375-2.09375 9.980469-10.960937 17.503906-21.554687 17.503906zm-19.574219 9.429688c-2.546875 1.523437-5.496094 2.371093-8.566407 2.371093-3.074218 0-6.023437-.847656-8.570312-2.371093 3.210938-1.996094 6.101562-4.476563 8.570312-7.371094 2.464844 2.894531 5.355469 5.375 8.566407 7.371094zm-22.5-66.203125c1.472656-1.144532 6.402343-2.890625 13.933593-2.890625 7.527344 0 12.457032 1.746093 13.929688 2.890625-.042969 1.125-.191406 2.21875-.433594 3.269531-.039062.136719-.070312.277344-.101562.417969-1.6875 6.589844-7.054688 11.417968-13.394532 11.417968-6.34375 0-11.710937-4.828124-13.398437-11.417968-.03125-.140625-.0625-.28125-.101563-.417969-.242187-1.050781-.390624-2.144531-.433593-3.269531zm-80.324219-23.929688c-1.757812.84375-3.722656 1.292969-5.6875 1.292969-.503906 0-.9375-.019531-1.375-.070313-7.089844-.734374-12.257812-6.878906-11.765625-13.996093l1.488281-21.621094c1.324219-19.097656 17.355469-34.058594 36.496094-34.058594h11.0625c2.175781 0 4.320312.578125 6.207031 1.664063l4.738281 2.738281c-1.832031 2.328125-3.472656 4.835937-4.902343 7.503906l-23.742188 44.375c-1.347656 2.511719-2.5 5.125-3.453125 7.808594zm20.734375 22.46875v-7.644531c0-6.929687 1.730469-13.816406 5-19.917969l23.746094-44.382812c2.136719-3.992188 4.957031-7.472656 8.277343-10.320313.1875-.144531.367188-.296875.542969-.460937 6.324219-5.214844 14.355469-8.195313 22.855469-8.195313h26.203125c8.496094 0 16.53125 2.980469 22.851563 8.195313.175781.164062.359374.316406.546874.460937 3.316407 2.847657 6.136719 6.328125 8.277344 10.320313l23.746094 44.386718c3.269531 6.097657 4.996094 12.984376 4.996094 19.914063v7.644531c0 9.792969-3.53125 19.175782-9.664063 26.511719-4.214843-15.488281-18.265625-26.964844-35-27.28125-1.050781-9.5625-12.140625-15.652344-28.855469-15.652344-16.71875 0-27.808593 6.089844-28.855468 15.652344-16.734375.316406-30.785156 11.792969-35 27.28125-6.136719-7.335937-9.667969-16.71875-9.667969-26.511719zm11.886719 51.945313c5.921875 12.5625 18.707031 21.277343 33.492187 21.277343 1.132813 0 2.253907-.050781 3.359375-.148437 5.953125 7.476563 15.035156 11.953125 24.785156 11.953125 9.746094 0 18.832032-4.476562 24.78125-11.953125 1.109376.097656 2.230469.148437 3.359376.148437 14.785156 0 27.570312-8.714843 33.496093-21.277343 14.386719 13.125 20.226563 34 13.917969 52.976562l-18.828125 56.597657c-.917969-.070313-1.847656-.105469-2.78125-.105469-7.3125 0-14.222656 2.148437-20.074219 5.878906v-31.484375c0-.148438 0-.296875-.003906-.445312v-37.667969c0-4.140625-3.355469-7.496094-7.492188-7.496094-4.140624 0-7.496093 3.355469-7.496093 7.496094v10.003906c-5.398438-3.636719-11.894531-5.761719-18.878907-5.761719-6.984374 0-13.480468 2.125-18.878906 5.761719v-10.003906c0-4.140625-3.355468-7.496094-7.492187-7.496094-4.140625 0-7.496094 3.355469-7.496094 7.496094v37.667969c-.003906.148437-.003906.296874-.003906.445312v31.484375c-5.851563-3.730469-12.761719-5.878906-20.074219-5.878906-.933594 0-1.863281.035156-2.78125.105469l-18.828125-56.59375c-6.308594-18.980469-.472656-39.855469 13.917969-52.980469zm-44.109375 51.03125c3.480469-3.5 8.066406-6.003907 12.992187-7.207031.480469 4.703124 1.472656 9.363281 2.972656 13.886718l18.625 55.984375c-5.871093 3.054688-10.878906 7.621094-14.453124 13.210938-2.101563-1.617188-4.070313-3.234375-5.9375-4.875-8.335938-7.339844-19.054688-19.304688-22.761719-34.628907-3.277344-13.570312.082031-27.847656 8.5625-36.371093zm4.300781 82.257812c3.179688 2.792969 6.601562 5.511719 10.371094 8.238281-.003906.023438-.007813.050782-.011719.074219-.464844 3.222657.496094 6.488281 2.636719 8.960938 2.164062 2.496093 5.296875 3.925781 8.59375 3.925781h51.816406c.308594 0 .613281-.011719.914062-.035156.246094.023437.496094.035156.746094.035156h52.753906c.25 0 .5-.011719.746094-.035156.300782.023437.605469.035156.914063.035156h51.816406c3.296875 0 6.429687-1.429688 8.59375-3.925781 2.140625-2.472657 3.101563-5.738281 2.636719-8.960938-.003906-.023437-.007813-.050781-.011719-.074219 3.769531-2.726562 7.191406-5.445312 10.375-8.242187 2.691406-2.371094 5.210937-4.8125 7.558594-7.316406 3.160156.628906 6.265625 1.386719 9.300781 2.261719l-8.011719 36.613281c-2.386719 10.890625-11.390625 18.496093-21.902343 18.496093h-176.785157c-10.511719 0-19.515625-7.605468-21.898437-18.496093l-8.015625-36.613281c3.035156-.875 6.144531-1.632813 9.304687-2.261719 2.34375 2.503906 4.867188 4.949219 7.558594 7.320312zm245.734375 122.148438h-288.582031c-26.515625 0-52.011719-12.648438-67.894532-34.742188 17.40625 12.332031 38.761719 19.308594 61.214844 19.308594h25.554688c4.136718 0 7.492187-3.355469 7.492187-7.496094 0-4.136719-3.355469-7.492187-7.492187-7.492187h-25.554688c-31.9375 0-61.230468-16.371094-76.730468-42.792969-13.824219-61.734375-13.707032-67.023437-12.960938-111.558594 16.542969 15.980469 47.144531 29.613281 90.035156 39.722657 8.371094 1.972656 15.042969 9.003906 16.992188 17.914062l8.699218 39.75c3.898438 17.828125 18.925782 30.277344 36.542969 30.277344h176.785157c17.617187 0 32.644531-12.449219 36.542968-30.277344l8.699219-39.75c1.949219-8.910156 8.621094-15.941406 16.992187-17.914062 42.890626-10.109376 73.492188-23.742188 90.035157-39.722657.070312 4.113281.125 8.402344.15625 12.679688v.050781c0 .238281.003906.472656.003906.710938v.140624c.003906.367188.003906.734376.007813 1.101563v.285156c.175781 35.078125-.546876 40.40625-13.128907 96.589844-15.5 26.421875-44.796875 42.789063-76.734375 42.789063h-246.402344c-4.140624 0-7.496093 3.355468-7.496093 7.496093s3.355469 7.496094 7.496093 7.496094h246.40625c22.453126 0 43.8125-6.976563 61.21875-19.3125-1.582031 1.851563-5.828124 8.636719-15.726562 16.527344-14.757812 11.746093-33.285156 18.21875-52.171875 18.21875zm0 0"/>
    <path d="m222.128906 94.375c4.140625 0 7.496094-3.355469 7.496094-7.496094v-3.59375c0-4.136718-3.355469-7.492187-7.496094-7.492187-4.136718 0-7.492187 3.355469-7.492187 7.492187v3.59375c0 4.140625 3.355469 7.496094 7.492187 7.496094zm0 0"/>
    <path d="m289.820312 94.375c4.136719 0 7.496094-3.355469 7.496094-7.496094v-3.59375c0-4.136718-3.359375-7.492187-7.496094-7.492187-4.140624 0-7.496093 3.355469-7.496093 7.492187v3.59375c0 4.140625 3.355469 7.496094 7.496093 7.496094zm0 0"/>
</svg>